<svg width="20" height="20" viewBox="0 0 20 20" fill="none" xmlns="http://www.w3.org/2000/svg">
<path d="M17.4987 4.99935V14.9993C17.4987 15.4577 17.8737 15.8327 18.332 15.8327C18.7904 15.8327 19.1654 15.4577 19.1654 14.9993V4.99935C19.1654 4.54102 18.7904 4.16602 18.332 4.16602C17.8737 4.16602 17.4987 4.54102 17.4987 4.99935ZM14.9987 15.8327C15.457 15.8327 15.832 15.4577 15.832 14.9993V4.99935C15.832 4.54102 15.457 4.16602 14.9987 4.16602C14.5404 4.16602 14.1654 4.54102 14.1654 4.99935V14.9993C14.1654 15.4577 14.5404 15.8327 14.9987 15.8327ZM11.6654 4.16602H1.66536C1.20703 4.16602 0.832031 4.54102 0.832031 4.99935V14.9993C0.832031 15.4577 1.20703 15.8327 1.66536 15.8327H11.6654C12.1237 15.8327 12.4987 15.4577 12.4987 14.9993V4.99935C12.4987 4.54102 12.1237 4.16602 11.6654 4.16602ZM6.66536 6.45768C7.6987 6.45768 8.54036 7.29935 8.54036 8.33268C8.54036 9.36602 7.6987 10.2077 6.66536 10.2077C5.63203 10.2077 4.79036 9.36602 4.79036 8.33268C4.79036 7.29935 5.63203 6.45768 6.66536 6.45768ZM10.4154 14.166H2.91536V13.541C2.91536 12.291 5.41536 11.666 6.66536 11.666C7.91536 11.666 10.4154 12.291 10.4154 13.541V14.166Z" fill="white"/>
</svg>
