<svg width="1152" height="369" viewBox="0 0 1152 369" fill="none" xmlns="http://www.w3.org/2000/svg">
<path d="M482.2 184.4V141.6H506.6C510.2 141.6 513.667 141.867 517 142.4C520.333 142.933 523.267 144 525.8 145.6C528.333 147.067 530.333 149.2 531.8 152C533.4 154.8 534.2 158.467 534.2 163C534.2 167.533 533.4 171.2 531.8 174C530.333 176.8 528.333 179 525.8 180.6C523.267 182.067 520.333 183.067 517 183.6C513.667 184.133 510.2 184.4 506.6 184.4H482.2ZM450.8 117.2V260H482.2V208.8H515.2C524.133 208.8 531.733 207.533 538 205C544.267 202.333 549.333 198.867 553.2 194.6C557.2 190.333 560.067 185.467 561.8 180C563.667 174.4 564.6 168.733 564.6 163C564.6 157.133 563.667 151.467 561.8 146C560.067 140.533 557.2 135.667 553.2 131.4C549.333 127.133 544.267 123.733 538 121.2C531.733 118.533 524.133 117.2 515.2 117.2H450.8ZM609.398 189.2C609.398 182.933 610.065 176.867 611.398 171C612.865 165.133 615.132 159.933 618.198 155.4C621.265 150.733 625.265 147.067 630.198 144.4C635.132 141.6 641.132 140.2 648.198 140.2C655.265 140.2 661.265 141.6 666.198 144.4C671.132 147.067 675.132 150.733 678.198 155.4C681.265 159.933 683.465 165.133 684.798 171C686.265 176.867 686.998 182.933 686.998 189.2C686.998 195.2 686.265 201.067 684.798 206.8C683.465 212.4 681.265 217.467 678.198 222C675.132 226.533 671.132 230.2 666.198 233C661.265 235.667 655.265 237 648.198 237C641.132 237 635.132 235.667 630.198 233C625.265 230.2 621.265 226.533 618.198 222C615.132 217.467 612.865 212.4 611.398 206.8C610.065 201.067 609.398 195.2 609.398 189.2ZM577.998 189.2C577.998 199.6 579.598 209.333 582.798 218.4C585.998 227.333 590.598 235.133 596.598 241.8C602.598 248.467 609.932 253.733 618.598 257.6C627.398 261.333 637.265 263.2 648.198 263.2C659.265 263.2 669.132 261.333 677.798 257.6C686.465 253.733 693.798 248.467 699.798 241.8C705.798 235.133 710.398 227.333 713.598 218.4C716.798 209.333 718.398 199.6 718.398 189.2C718.398 178.533 716.798 168.667 713.598 159.6C710.398 150.4 705.798 142.4 699.798 135.6C693.798 128.8 686.465 123.467 677.798 119.6C669.132 115.733 659.265 113.8 648.198 113.8C637.265 113.8 627.398 115.733 618.598 119.6C609.932 123.467 602.598 128.8 596.598 135.6C590.598 142.4 585.998 150.4 582.798 159.6C579.598 168.667 577.998 178.533 577.998 189.2ZM739.863 117.2V260H840.863V233.6H771.263V117.2H739.863ZM858.417 117.2V260H889.817V117.2H858.417ZM917.402 117.2V260H948.802V201H1008.6V176.6H948.802V143.6H1017.8V117.2H917.402ZM1035.96 117.2V260H1144.36V233.6H1067.36V198.6H1136.56V174.2H1067.36V143.6H1142.76V117.2H1035.96Z" fill="white"/>
<circle cx="177.218" cy="184.321" r="80" transform="rotate(-48 177.218 184.321)" fill="#6FA4FC"/>
<circle cx="241.455" cy="112.981" r="80" transform="rotate(-48 241.455 112.981)" fill="#FBC151"/>
<circle cx="112.982" cy="255.665" r="80" transform="rotate(-48 112.982 255.665)" fill="#F88125"/>
<path fill-rule="evenodd" clip-rule="evenodd" d="M97.5355 177.166C121.384 172.492 147.063 178.7 166.513 196.213C185.964 213.726 194.822 238.616 192.667 262.822C168.818 267.496 143.139 261.288 123.689 243.774C104.239 226.261 95.38 201.372 97.5355 177.166Z" fill="white"/>
<path fill-rule="evenodd" clip-rule="evenodd" d="M161.772 105.822C185.62 101.148 211.299 107.356 230.75 124.869C250.2 142.383 259.059 167.272 256.903 191.478C233.055 196.152 207.376 189.944 187.925 172.431C168.475 154.917 159.616 130.028 161.772 105.822Z" fill="white"/>
</svg>
