<svg width="371" height="516" viewBox="0 0 371 516" fill="none" xmlns="http://www.w3.org/2000/svg">
<circle cx="177.218" cy="184.322" r="80" transform="rotate(-48 177.218 184.322)" fill="#6FA4FC"/>
<circle cx="241.455" cy="112.982" r="80" transform="rotate(-48 241.455 112.982)" fill="#FBC151"/>
<circle cx="112.982" cy="255.666" r="80" transform="rotate(-48 112.982 255.666)" fill="#F88125"/>
<path fill-rule="evenodd" clip-rule="evenodd" d="M97.5355 177.166C121.384 172.492 147.063 178.701 166.513 196.214C185.964 213.727 194.822 238.616 192.667 262.823C168.818 267.497 143.139 261.288 123.689 243.775C104.239 226.262 95.38 201.373 97.5355 177.166Z" fill="#0054A6"/>
<path fill-rule="evenodd" clip-rule="evenodd" d="M161.772 105.822C185.62 101.149 211.299 107.357 230.75 124.87C250.2 142.383 259.059 167.273 256.903 191.479C233.055 196.153 207.376 189.945 187.925 172.431C168.475 154.918 159.616 130.029 161.772 105.822Z" fill="#0054A6"/>
<path d="M36.1781 455.2V433.8H48.3781C50.1781 433.8 51.9115 433.933 53.5781 434.2C55.2448 434.467 56.7115 435 57.9781 435.8C59.2448 436.533 60.2448 437.6 60.9781 439C61.7781 440.4 62.1781 442.233 62.1781 444.5C62.1781 446.767 61.7781 448.6 60.9781 450C60.2448 451.4 59.2448 452.5 57.9781 453.3C56.7115 454.033 55.2448 454.533 53.5781 454.8C51.9115 455.067 50.1781 455.2 48.3781 455.2H36.1781ZM20.4781 421.6V493H36.1781V467.4H52.6781C57.1448 467.4 60.9448 466.767 64.0781 465.5C67.2115 464.167 69.7448 462.433 71.6781 460.3C73.6781 458.167 75.1115 455.733 75.9781 453C76.9115 450.2 77.3781 447.367 77.3781 444.5C77.3781 441.567 76.9115 438.733 75.9781 436C75.1115 433.267 73.6781 430.833 71.6781 428.7C69.7448 426.567 67.2115 424.867 64.0781 423.6C60.9448 422.267 57.1448 421.6 52.6781 421.6H20.4781ZM99.7773 457.6C99.7773 454.467 100.111 451.433 100.777 448.5C101.511 445.567 102.644 442.967 104.177 440.7C105.711 438.367 107.711 436.533 110.177 435.2C112.644 433.8 115.644 433.1 119.177 433.1C122.711 433.1 125.711 433.8 128.177 435.2C130.644 436.533 132.644 438.367 134.177 440.7C135.711 442.967 136.811 445.567 137.477 448.5C138.211 451.433 138.577 454.467 138.577 457.6C138.577 460.6 138.211 463.533 137.477 466.4C136.811 469.2 135.711 471.733 134.177 474C132.644 476.267 130.644 478.1 128.177 479.5C125.711 480.833 122.711 481.5 119.177 481.5C115.644 481.5 112.644 480.833 110.177 479.5C107.711 478.1 105.711 476.267 104.177 474C102.644 471.733 101.511 469.2 100.777 466.4C100.111 463.533 99.7773 460.6 99.7773 457.6ZM84.0773 457.6C84.0773 462.8 84.8773 467.667 86.4773 472.2C88.0773 476.667 90.3773 480.567 93.3773 483.9C96.3773 487.233 100.044 489.867 104.377 491.8C108.777 493.667 113.711 494.6 119.177 494.6C124.711 494.6 129.644 493.667 133.977 491.8C138.311 489.867 141.977 487.233 144.977 483.9C147.977 480.567 150.277 476.667 151.877 472.2C153.477 467.667 154.277 462.8 154.277 457.6C154.277 452.267 153.477 447.333 151.877 442.8C150.277 438.2 147.977 434.2 144.977 430.8C141.977 427.4 138.311 424.733 133.977 422.8C129.644 420.867 124.711 419.9 119.177 419.9C113.711 419.9 108.777 420.867 104.377 422.8C100.044 424.733 96.3773 427.4 93.3773 430.8C90.3773 434.2 88.0773 438.2 86.4773 442.8C84.8773 447.333 84.0773 452.267 84.0773 457.6ZM165.009 421.6V493H215.509V479.8H180.709V421.6H165.009ZM224.287 421.6V493H239.987V421.6H224.287ZM253.779 421.6V493H269.479V463.5H299.379V451.3H269.479V434.8H303.979V421.6H253.779ZM313.056 421.6V493H367.256V479.8H328.756V462.3H363.356V450.1H328.756V434.8H366.456V421.6H313.056Z" fill="#0054A6"/>
</svg>
